<?xml version="1.0" encoding="UTF-8" standalone="no"?> <svg width="64" height="64" viewBox="0 0 64 64" fill="none" xmlns="http://www.w3.org/2000/svg">
<path d="M52 17L47.71 14L47 13.5V19.75L52 17Z" fill="#9BC9FF"/>
<path d="M59 11H47V13.5L47.71 14H58V40H6V14H16.29L17 13.5V11H5C4.47005 11.0016 3.96227 11.2128 3.58753 11.5875C3.2128 11.9623 3.00158 12.4701 3 13V43H61V13C60.9984 12.4701 60.7872 11.9623 60.4125 11.5875C60.0377 11.2128 59.5299 11.0016 59 11V11Z" fill="#9BC9FF"/>
<path d="M17 19.75V13.5L16.29 14L12 17L17 19.75Z" fill="#9BC9FF"/>
<path d="M32 3L27.71 6H36.29L32 3Z" fill="#9BC9FF"/>
<path d="M3 43V47C3.00158 47.5299 3.2128 48.0377 3.58753 48.4125C3.96227 48.7872 4.47005 48.9984 5 49H59C59.5299 48.9984 60.0377 48.7872 60.4125 48.4125C60.7872 48.0377 60.9984 47.5299 61 47V43H3Z" fill="#9BC9FF"/>
<path d="M12 36L27.83 25.71L17 19.75L12 17V36Z" fill="#9BC9FF"/>
<path d="M52 36L36.17 25.71L32 28L27.83 25.71L12 36H52Z" fill="#9BC9FF"/>
<path d="M52 17L47 19.75L36.17 25.71L52 36V17Z" fill="#9BC9FF"/>
<path d="M38 49H26V55H38V49Z" fill="#9BC9FF"/>
<path d="M21 55C20.4696 55 19.9609 55.2107 19.5858 55.5858C19.2107 55.9609 19 56.4696 19 57V61H45V57C45 56.4696 44.7893 55.9609 44.4142 55.5858C44.0391 55.2107 43.5304 55 43 55H21Z" fill="#9BC9FF"/>
<path d="M59 10H48V6C48 5.73479 47.8946 5.48043 47.7071 5.2929C47.5196 5.10536 47.2652 5 47 5H36.6L32.573 2.181C32.405 2.06355 32.205 2.00056 32 2.00056C31.795 2.00056 31.595 2.06355 31.427 2.181L27.4 5H17C16.7348 5 16.4804 5.10536 16.2929 5.2929C16.1054 5.48043 16 5.73479 16 6V10H5C4.20435 10 3.44129 10.3161 2.87868 10.8787C2.31607 11.4413 2 12.2044 2 13V47C2 47.7956 2.31607 48.5587 2.87868 49.1213C3.44129 49.6839 4.20435 50 5 50H25V54H21C20.2044 54 19.4413 54.3161 18.8787 54.8787C18.3161 55.4413 18 56.2044 18 57V61C18 61.2652 18.1054 61.5196 18.2929 61.7071C18.4804 61.8946 18.7348 62 19 62H45C45.2652 62 45.5196 61.8946 45.7071 61.7071C45.8946 61.5196 46 61.2652 46 61V57C46 56.2044 45.6839 55.4413 45.1213 54.8787C44.5587 54.3161 43.7956 54 43 54H39V50H59C59.7956 50 60.5587 49.6839 61.1213 49.1213C61.6839 48.5587 62 47.7956 62 47V13C62 12.2044 61.6839 11.4413 61.1213 10.8787C60.5587 10.3161 59.7956 10 59 10V10ZM48 15.421L50.111 16.9L48 18.059V15.421ZM51 18.691V34.157L38.112 25.78L51 18.691ZM36.124 26.873L48.627 35H15.373L27.873 26.873L31.516 28.873C31.6633 28.9543 31.8288 28.997 31.997 28.997C32.1652 28.997 32.3307 28.9543 32.478 28.873L36.124 26.873ZM16 18.059L13.889 16.9L16 15.421V18.059ZM13 34.159V18.691L25.888 25.78L13 34.159ZM11.427 16.181C11.2952 16.2731 11.1876 16.3957 11.1133 16.5382C11.0389 16.6808 11.0001 16.8392 11 17V36C11 36.2652 11.1054 36.5196 11.2929 36.7071C11.4804 36.8946 11.7348 37 12 37H52C52.2652 37 52.5196 36.8946 52.7071 36.7071C52.8946 36.5196 53 36.2652 53 36V17C52.9999 16.8392 52.9611 16.6808 52.8867 16.5382C52.8124 16.3957 52.7048 16.2731 52.573 16.181L50.887 15H57V39H7V15H13.113L11.427 16.181ZM32 4.22L33.115 5H30.885L32 4.22ZM18 7H46V19.159L32 26.859L18 19.159V7ZM5 12H16V12.979L15.97 13H6C5.73478 13 5.48043 13.1054 5.29289 13.2929C5.10536 13.4804 5 13.7348 5 14V40C5 40.2652 5.10536 40.5196 5.29289 40.7071C5.48043 40.8946 5.73478 41 6 41H58C58.2652 41 58.5196 40.8946 58.7071 40.7071C58.8946 40.5196 59 40.2652 59 40V14C59 13.7348 58.8946 13.4804 58.7071 13.2929C58.5196 13.1054 58.2652 13 58 13H48.03L48 12.979V12H59C59.2652 12 59.5196 12.1054 59.7071 12.2929C59.8946 12.4804 60 12.7348 60 13V42H4V13C4 12.7348 4.10536 12.4804 4.29289 12.2929C4.48043 12.1054 4.73478 12 5 12ZM43 56C43.2652 56 43.5196 56.1054 43.7071 56.2929C43.8946 56.4804 44 56.7348 44 57V60H20V57C20 56.7348 20.1054 56.4804 20.2929 56.2929C20.4804 56.1054 20.7348 56 21 56H43ZM37 54H27V50H37V54ZM59 48H5C4.73478 48 4.48043 47.8946 4.29289 47.7071C4.10536 47.5196 4 47.2652 4 47V44H60V47C60 47.2652 59.8946 47.5196 59.7071 47.7071C59.5196 47.8946 59.2652 48 59 48Z" fill="#1E81CE"/>
<path d="M55 45H53C52.7348 45 52.4804 45.1054 52.2929 45.2929C52.1054 45.4804 52 45.7348 52 46C52 46.2652 52.1054 46.5196 52.2929 46.7071C52.4804 46.8946 52.7348 47 53 47H55C55.2652 47 55.5196 46.8946 55.7071 46.7071C55.8946 46.5196 56 46.2652 56 46C56 45.7348 55.8946 45.4804 55.7071 45.2929C55.5196 45.1054 55.2652 45 55 45Z" fill="#1E81CE"/>
<path d="M34 24C34.2652 24 34.5196 23.8946 34.7071 23.7071C34.8946 23.5196 35 23.2652 35 23C35 22.7348 34.8946 22.4804 34.7071 22.2929C34.5196 22.1054 34.2652 22 34 22H32C30.8133 22 29.6533 21.6481 28.6666 20.9888C27.6799 20.3295 26.9108 19.3925 26.4567 18.2961C26.0026 17.1997 25.8838 15.9933 26.1153 14.8295C26.3468 13.6656 26.9182 12.5965 27.7574 11.7574C28.5965 10.9182 29.6656 10.3468 30.8295 10.1153C31.9933 9.88378 33.1997 10.0026 34.2961 10.4567C35.3925 10.9109 36.3295 11.6799 36.9888 12.6666C37.6481 13.6533 38 14.8133 38 16V17C38 17.2652 37.8946 17.5196 37.7071 17.7071C37.5196 17.8946 37.2652 18 37 18C36.7348 18 36.4804 17.8946 36.2929 17.7071C36.1054 17.5196 36 17.2652 36 17V16C36.0013 15.4746 35.8983 14.9542 35.697 14.4689C35.4956 13.9836 35.1999 13.5431 34.827 13.173C34.066 12.4448 33.0533 12.0383 32 12.0383C30.9467 12.0383 29.934 12.4448 29.173 13.173C28.4288 13.9118 28.0052 14.9138 27.9937 15.9624C27.9822 17.011 28.3838 18.022 29.1116 18.7769C29.8395 19.5318 30.8352 19.97 31.8835 19.9968C32.9318 20.0236 33.9485 19.6368 34.714 18.92C35.107 19.3938 35.6367 19.7346 36.2308 19.8958C36.8249 20.057 37.4542 20.0307 38.0328 19.8205C38.6114 19.6104 39.1109 19.2266 39.463 18.7218C39.8151 18.2169 40.0027 17.6155 40 17V16C40 14.4178 39.5308 12.871 38.6518 11.5554C37.7727 10.2398 36.5233 9.21447 35.0615 8.60897C33.5997 8.00347 31.9911 7.84504 30.4393 8.15372C28.8874 8.4624 27.462 9.22433 26.3431 10.3431C25.2243 11.462 24.4624 12.8874 24.1537 14.4393C23.845 15.9911 24.0035 17.5997 24.609 19.0615C25.2145 20.5233 26.2398 21.7727 27.5554 22.6518C28.871 23.5308 30.4178 24 32 24H34ZM32 18C31.5373 18.0006 31.0886 17.8406 30.7306 17.5475C30.3725 17.2544 30.1272 16.8461 30.0364 16.3924C29.9457 15.9386 30.015 15.4675 30.2327 15.0591C30.4504 14.6508 30.803 14.3306 31.2303 14.153C31.6576 13.9755 32.1333 13.9517 32.5762 14.0855C33.0192 14.2194 33.402 14.5028 33.6595 14.8873C33.9169 15.2718 34.0331 15.7337 33.9881 16.1942C33.9432 16.6548 33.7399 17.0855 33.413 17.413C33.0384 17.7882 32.5302 17.9994 32 18Z" fill="#1E81CE"/>
</svg>
